<?xml version="1.0" encoding="iso-8859-1"?>
<!-- Generator: Adobe Illustrator 16.0.0, SVG Export Plug-In . SVG Version: 6.00 Build 0)  -->
<!DOCTYPE svg PUBLIC "-//W3C//DTD SVG 1.1//EN" "http://www.w3.org/Graphics/SVG/1.1/DTD/svg11.dtd">
<svg version="1.1" id="Layer_1" xmlns="http://www.w3.org/2000/svg" xmlns:xlink="http://www.w3.org/1999/xlink" x="0px" y="0px"
	 width="193.957px" height="242.163px" viewBox="393.758 111.849 193.957 242.163"
	 style="enable-background:new 393.758 111.849 193.957 242.163;" xml:space="preserve">
<path style="fill:#F05620;" d="M491.306,343.299c-0.342,0.229-0.684,0.456-1.024,0.57c-1.025,0.456-2.166,0.57-3.077,0.57
	c-1.026,0-2.621-0.114-4.217-1.254c-2.279-1.596-3.191-4.332-3.191-6.725c0-4.9,3.989-7.293,7.293-7.293
	c1.14,0,2.279,0.342,3.305,0.912c1.597,1.025,2.052,2.393,2.165,3.189l-7.406,2.963l-2.394,0.229
	c0.798,3.988,3.533,6.382,6.496,6.382c1.595,0,2.735-0.569,3.874-1.14L491.306,343.299L491.306,343.299z M488.229,333.955
	c0.57-0.229,0.912-0.456,0.912-0.912c0-1.253-1.48-2.734-3.19-2.734c-1.253,0-3.646,1.025-3.646,4.444
	c0,0.569,0.114,1.14,0.114,1.709L488.229,333.955L488.229,333.955z M478.884,344.098l1.141-0.685
	c-0.57-0.114-1.025-0.114-1.596-0.114c-1.025-0.113-1.253-0.342-1.253-1.48v-7.293c0-4.444,0-8.319,0.341-10.826
	c0.114-1.141,0.456-1.254,1.482-1.823h-4.559l-2.394,1.14h2.507c0,1.481-0.113,3.532-0.228,5.127
	c-0.114,3.306-0.114,6.838-0.114,9.231v5.127c0,0.685-0.114,0.685-0.912,1.71h5.584V344.098L478.884,344.098z M468.514,330.878
	c0.685,0.57,2.279,1.823,2.279,4.331c0,2.393-1.368,3.418-2.621,4.443c-0.456,0.457-0.912,0.912-0.912,1.596
	s0.456,1.025,0.797,1.368l1.141,0.911c1.368,1.141,2.621,2.279,2.621,4.445c0,2.963-2.85,6.039-8.319,6.039
	c-4.559,0-6.837-2.164-6.837-4.558c0-1.14,0.57-2.735,2.393-3.875c1.938-1.253,4.672-1.367,6.04-1.481
	c-0.456-0.57-0.912-1.14-0.912-2.164c0-0.57,0.114-0.912,0.343-1.254c-0.343,0-0.685,0.113-1.026,0.113
	c-3.305,0-5.242-2.507-5.242-5.014c0-1.481,0.685-3.077,2.051-4.217c1.824-1.48,3.989-1.709,5.698-1.709h6.496l-2.051,1.141h-1.938
	V330.878L468.514,330.878z M466.235,344.895c-0.229,0-0.456,0-0.685,0c-0.342,0-2.051,0.114-3.305,0.457
	c-0.684,0.228-2.735,1.025-2.735,3.305s2.165,3.875,5.583,3.875c3.077,0,4.672-1.481,4.672-3.42
	C469.768,347.516,468.742,346.604,466.235,344.895L466.235,344.895z M467.261,338.855c0.685-0.685,0.797-1.709,0.797-2.279
	c0-2.279-1.366-5.812-3.987-5.812c-0.799,0-1.709,0.457-2.165,1.026c-0.57,0.685-0.685,1.481-0.685,2.394
	c0,2.164,1.254,5.584,3.988,5.584C465.893,339.768,466.691,339.425,467.261,338.855L467.261,338.855z M448.913,344.439
	c-5.014,0-7.749-3.875-7.749-7.521c0-4.104,3.419-7.749,8.205-7.749c4.672,0,7.521,3.646,7.521,7.521
	C456.891,340.45,454.042,344.439,448.913,344.439L448.913,344.439z M452.902,341.932c0.797-1.025,0.912-2.279,0.912-3.533
	c0-2.734-1.367-8.09-5.242-8.09c-1.025,0-2.051,0.455-2.85,1.025c-1.253,1.141-1.48,2.507-1.48,3.875
	c0,3.191,1.595,8.318,5.355,8.318C450.851,343.527,452.104,342.958,452.902,341.932L452.902,341.932z M432.047,344.439
	c-5.014,0-7.749-3.875-7.749-7.521c0-4.104,3.419-7.749,8.205-7.749c4.672,0,7.521,3.646,7.521,7.521
	C440.139,340.45,437.176,344.439,432.047,344.439L432.047,344.439z M436.036,341.932c0.798-1.025,0.912-2.279,0.912-3.533
	c0-2.734-1.368-8.09-5.242-8.09c-1.026,0-2.051,0.455-2.849,1.025c-1.254,1.141-1.481,2.507-1.481,3.875
	c0,3.191,1.596,8.318,5.356,8.318C433.985,343.527,435.238,342.958,436.036,341.932L436.036,341.932z M422.247,343.299v-3.646
	c0-0.342,0-1.139,0.114-1.48c0.113-0.229,0.113-0.342,0.342-0.456l0.797-0.797h-6.268l-2.394,1.253l4.444-0.229v4.787
	c-0.912,0.342-1.823,0.797-3.761,0.797c-6.496,0-10.484-5.241-10.484-10.825c0-5.242,3.533-8.774,8.205-8.774
	c3.533,0,5.355,1.822,6.382,2.848l-0.798,1.141l1.025-0.229l2.508-2.393c-0.685-0.456-1.709-1.254-3.875-1.824
	c-1.368-0.342-2.964-0.57-4.56-0.57c-7.521,0-11.965,5.356-11.965,11.055c0,4.672,3.077,10.712,11.282,10.712
	c1.596,0,3.19-0.228,4.899-0.456L422.247,343.299L422.247,343.299z M499.396,343.414l5.584-14.473h2.051l5.926,14.473h-2.165
	l-1.709-4.443h-6.04l-1.595,4.443H499.396z M503.613,337.374h4.899l-1.48-3.989c-0.456-1.253-0.798-2.279-1.025-2.963
	c-0.228,0.912-0.456,1.824-0.798,2.734L503.613,337.374z M514.325,343.414V332.93h1.596v1.481c0.798-1.14,1.938-1.709,3.305-1.709
	c0.685,0,1.255,0.114,1.709,0.342c0.57,0.228,0.912,0.569,1.141,0.912c0.228,0.342,0.456,0.798,0.569,1.366
	c0.114,0.343,0.114,0.912,0.114,1.71v6.495h-1.823v-6.381c0-0.684-0.113-1.254-0.228-1.596s-0.342-0.684-0.684-0.912
	c-0.343-0.228-0.799-0.342-1.253-0.342c-0.799,0-1.368,0.229-1.938,0.684s-0.797,1.367-0.797,2.734v5.698L514.325,343.414
	L514.325,343.414z M532.445,342.046c-0.685,0.57-1.253,0.912-1.938,1.14c-0.57,0.229-1.254,0.342-1.938,0.342
	c-1.141,0-2.052-0.228-2.621-0.797c-0.57-0.569-0.912-1.254-0.912-2.166c0-0.568,0.114-1.024,0.342-1.366
	c0.229-0.456,0.57-0.798,0.912-1.026s0.798-0.456,1.253-0.57c0.342-0.113,0.912-0.228,1.595-0.228
	c1.482-0.228,2.508-0.342,3.191-0.569c0-0.229,0-0.457,0-0.457c0-0.684-0.114-1.252-0.456-1.48c-0.456-0.456-1.14-0.57-2.051-0.57
	c-0.798,0-1.481,0.114-1.823,0.456c-0.456,0.343-0.684,0.797-0.912,1.595l-1.709-0.228c0.114-0.797,0.456-1.367,0.798-1.823
	s0.912-0.798,1.595-1.025c0.685-0.229,1.481-0.342,2.394-0.342s1.595,0.113,2.166,0.342c0.57,0.228,1.024,0.455,1.253,0.797
	c0.228,0.343,0.456,0.685,0.57,1.255c0.113,0.341,0.113,0.797,0.113,1.595v2.393c0,1.709,0,2.735,0.114,3.191
	s0.229,0.912,0.456,1.253h-1.823C532.673,342.958,532.559,342.616,532.445,342.046z M532.331,338.057
	c-0.685,0.229-1.596,0.457-2.963,0.685c-0.684,0.114-1.253,0.228-1.595,0.342c-0.343,0.114-0.57,0.342-0.685,0.569
	c-0.114,0.229-0.228,0.57-0.228,0.798c0,0.456,0.228,0.911,0.569,1.14c0.343,0.342,0.912,0.456,1.596,0.456s1.254-0.114,1.823-0.456
	c0.57-0.342,0.911-0.684,1.14-1.254c0.228-0.456,0.342-1.025,0.342-1.822V338.057L532.331,338.057z M536.889,343.414v-14.473h1.824
	v14.473H536.889z M541.334,347.402l-0.229-1.709c0.343,0.113,0.685,0.113,1.025,0.113s0.685-0.113,0.912-0.228
	c0.229-0.114,0.456-0.343,0.57-0.569c0.113-0.228,0.342-0.57,0.569-1.367c0-0.115,0.114-0.229,0.114-0.457l-3.988-10.483h1.938
	l2.166,6.04c0.228,0.798,0.57,1.595,0.798,2.393c0.229-0.797,0.456-1.595,0.685-2.393l2.278-6.154h1.823l-3.989,10.712
	c-0.456,1.14-0.797,1.938-1.024,2.394c-0.343,0.57-0.685,1.025-1.141,1.254c-0.456,0.228-0.912,0.455-1.48,0.455
	C542.131,347.63,541.675,347.63,541.334,347.402z M555.465,341.818l0.229,1.595c-0.456,0.114-0.912,0.114-1.368,0.114
	c-0.685,0-1.139-0.114-1.481-0.342c-0.342-0.229-0.569-0.457-0.798-0.797c-0.114-0.343-0.228-1.027-0.228-2.053v-6.04h-1.253v-1.368
	h1.253v-2.621l1.823-1.024v3.646h1.823v1.368h-1.823v6.153c0,0.455,0,0.798,0.114,1.025c0.114,0.114,0.114,0.229,0.341,0.342
	c0.114,0.115,0.343,0.115,0.57,0.115C554.781,341.818,555.123,341.818,555.465,341.818z M557.174,330.878v-2.051h1.823v2.051
	H557.174z M557.174,343.414V332.93h1.823v10.484H557.174z M568.569,339.539l1.71,0.229c-0.229,1.252-0.685,2.164-1.482,2.849
	c-0.797,0.684-1.709,1.026-2.962,1.026c-1.481,0-2.621-0.457-3.419-1.369c-0.912-0.912-1.367-2.278-1.367-3.988
	c0-1.139,0.229-2.165,0.569-2.963c0.342-0.797,0.912-1.481,1.709-1.938c0.798-0.456,1.595-0.684,2.507-0.684
	c1.139,0,2.051,0.342,2.849,0.912c0.685,0.57,1.141,1.367,1.368,2.507l-1.709,0.228c-0.114-0.684-0.456-1.254-0.912-1.595
	c-0.456-0.342-0.912-0.569-1.48-0.569c-0.912,0-1.597,0.342-2.166,0.911c-0.569,0.685-0.797,1.709-0.797,3.077
	s0.228,2.393,0.797,3.077s1.254,0.912,2.166,0.912c0.684,0,1.253-0.228,1.709-0.685C568.114,341.021,568.456,340.45,568.569,339.539
	z M571.077,340.223l1.709-0.228c0.114,0.683,0.342,1.253,0.798,1.595s1.14,0.57,1.938,0.57s1.481-0.114,1.823-0.456
	c0.342-0.343,0.57-0.685,0.57-1.14c0-0.457-0.229-0.685-0.57-0.912c-0.228-0.114-0.798-0.342-1.823-0.57
	c-1.254-0.342-2.166-0.57-2.734-0.912c-0.456-0.229-0.912-0.57-1.141-1.025c-0.228-0.455-0.342-0.912-0.342-1.367
	c0-0.457,0.114-0.912,0.342-1.254c0.229-0.455,0.456-0.684,0.912-1.025c0.229-0.229,0.685-0.342,1.14-0.57
	c0.456-0.113,1.025-0.228,1.596-0.228c0.798,0,1.595,0.114,2.165,0.341c0.57,0.229,1.14,0.57,1.368,0.912
	c0.342,0.456,0.456,0.912,0.569,1.595l-1.709,0.228c-0.113-0.569-0.342-0.911-0.684-1.252c-0.342-0.342-0.912-0.457-1.596-0.457
	c-0.798,0-1.368,0.115-1.709,0.457c-0.342,0.228-0.57,0.569-0.57,0.91c0,0.229,0.114,0.457,0.229,0.57
	c0.113,0.229,0.342,0.342,0.684,0.456c0.228,0.114,0.684,0.228,1.596,0.456c1.253,0.342,2.166,0.57,2.621,0.797
	c0.456,0.229,0.912,0.57,1.141,0.912c0.228,0.456,0.455,0.912,0.455,1.482c0,0.568-0.228,1.139-0.569,1.709s-0.798,0.91-1.481,1.252
	c-0.684,0.343-1.368,0.457-2.166,0.457c-1.368,0-2.394-0.229-3.077-0.799C571.761,342.16,571.305,341.361,571.077,340.223z"/>
<path style="fill:#F6981C;" d="M587.601,288.484c0,9.459-7.75,17.095-17.094,17.095H411.079c-9.459,0-17.094-7.75-17.094-17.095
	V128.943c0-9.458,7.749-17.094,17.094-17.094h159.428c9.458,0,17.094,7.749,17.094,17.094V288.484z"/>
<path style="fill:#FFFFFF;" d="M587.601,172.704l-17.436-11.738c0.342-1.481,0.57-3.077,0.57-4.672
	c0-11.396-9.231-20.626-20.627-20.626c-11.396,0-20.626,9.23-20.626,20.626c0,4.444,1.48,8.547,3.875,11.965l-37.834,57.777
	c-1.597-0.343-3.191-0.57-4.787-0.57c-5.015,0-9.687,1.823-13.333,4.9l-25.299-14.587c0.113-0.912,0.228-1.823,0.228-2.85
	c0-11.396-9.23-20.625-20.626-20.625s-20.626,9.229-20.626,20.625c0,2.85,0.57,5.471,1.595,7.979l-18.917,17.55v18.688
	l28.034-26.097c2.963,1.595,6.269,2.507,9.8,2.507c5.471,0,10.371-2.164,14.018-5.584l24.729,14.245
	c-0.228,1.253-0.342,2.621-0.342,3.875c0,11.396,9.23,20.626,20.626,20.626s20.626-9.23,20.626-20.626
	c0-4.786-1.596-9.116-4.33-12.534l37.72-57.55c1.709,0.456,3.533,0.798,5.471,0.798c4.786,0,9.116-1.595,12.648-4.33l24.843,16.752
	L587.601,172.704L587.601,172.704z"/>
<path style="fill:#F05620;" d="M562.758,172.477c-3.533,2.734-7.863,4.33-12.648,4.33c-1.938,0-3.762-0.228-5.471-0.798
	l-37.492,57.435c2.734,3.42,4.33,7.863,4.33,12.537c0,11.396-9.23,20.625-20.626,20.625s-20.627-9.229-20.627-20.625
	c0-1.369,0.114-2.621,0.343-3.875l-24.615-14.246c-3.646,3.42-8.661,5.584-14.018,5.584c-3.532,0-6.837-0.911-9.801-2.506
	l-28.034,26.096v31.338c0,9.459,7.749,17.094,17.095,17.094h159.428c9.458,0,17.094-7.749,17.094-17.094v-99.257L562.758,172.477z"
	/>
</svg>
